<svg xmlns="http://www.w3.org/2000/svg" width="206" height="30" viewBox="0 0 206 30" fill="none"><path d="M55.944 9.96C56.36 10.808 56.568 11.752 56.568 12.792C56.568 13.832 56.36 14.776 55.944 15.624C55.528 16.456 54.992 17.12 54.336 17.616C53.008 18.64 51.632 19.152 50.208 19.152H47.208V21.864C47.208 22.232 47.192 22.512 47.16 22.704C47.144 22.88 47.072 23.088 46.944 23.328C46.72 23.76 46.096 23.976 45.072 23.976C43.952 23.976 43.296 23.68 43.104 23.088C43.008 22.816 42.96 22.4 42.96 21.84V8.52C42.96 8.152 42.968 7.88 42.984 7.704C43.016 7.512 43.096 7.296 43.224 7.056C43.448 6.624 44.072 6.408 45.096 6.408H50.232C51.64 6.408 53.008 6.92 54.336 7.944C54.992 8.44 55.528 9.112 55.944 9.96ZM50.232 14.904C50.712 14.904 51.184 14.728 51.648 14.376C52.112 14.024 52.344 13.496 52.344 12.792C52.344 12.088 52.112 11.56 51.648 11.208C51.184 10.84 50.704 10.656 50.208 10.656H47.208V14.904H50.232ZM69.6201 7.056C69.7801 6.8 70.0121 6.624 70.3161 6.528C70.6201 6.432 70.9961 6.384 71.4441 6.384C71.9081 6.384 72.2761 6.424 72.5481 6.504C72.8201 6.584 73.0281 6.68 73.1721 6.792C73.3161 6.904 73.4201 7.072 73.4841 7.296C73.5801 7.568 73.6281 7.984 73.6281 8.544V15.792C73.6281 17.904 72.9721 19.824 71.6601 21.552C71.0201 22.368 70.1961 23.032 69.1881 23.544C68.1801 24.04 67.0601 24.288 65.8281 24.288C64.6121 24.288 63.5001 24.032 62.4921 23.52C61.5001 23.008 60.6921 22.336 60.0681 21.504C58.7721 19.808 58.1241 17.888 58.1241 15.744V8.52C58.1241 8.136 58.1321 7.856 58.1481 7.68C58.1801 7.488 58.2601 7.272 58.3881 7.032C58.5161 6.792 58.7321 6.624 59.0361 6.528C59.3401 6.432 59.7481 6.384 60.2601 6.384C60.7721 6.384 61.1801 6.432 61.4841 6.528C61.7881 6.624 61.9961 6.792 62.1081 7.032C62.3001 7.4 62.3961 7.904 62.3961 8.544V15.744C62.3961 16.72 62.6361 17.648 63.1161 18.528C63.3561 18.976 63.7161 19.336 64.1961 19.608C64.6761 19.88 65.2441 20.016 65.9001 20.016C67.0681 20.016 67.9401 19.584 68.5161 18.72C69.0921 17.856 69.3801 16.856 69.3801 15.72V8.376C69.3801 7.752 69.4601 7.312 69.6201 7.056ZM84.7061 13.392H88.9301C89.7941 13.424 90.3221 13.648 90.5141 14.064C90.6741 14.368 90.7541 14.816 90.7541 15.408V20.688C90.7541 21.2 90.5301 21.688 90.0821 22.152C88.7381 23.544 86.7221 24.24 84.0341 24.24C81.6501 24.24 79.5781 23.344 77.8181 21.552C76.0581 19.744 75.1781 17.568 75.1781 15.024C75.1781 12.48 76.0741 10.36 77.8661 8.664C79.6581 6.952 81.7701 6.096 84.2021 6.096C86.0901 6.096 87.8741 6.72 89.5541 7.968C89.9861 8.288 90.2021 8.648 90.2021 9.048C90.2021 9.432 90.0181 9.88 89.6501 10.392C89.0261 11.24 88.4581 11.664 87.9461 11.664C87.6421 11.664 87.1541 11.448 86.4821 11.016C85.8101 10.568 85.0101 10.344 84.0821 10.344C82.8661 10.344 81.7861 10.776 80.8421 11.64C79.8981 12.488 79.4261 13.608 79.4261 15C79.4261 16.376 79.9061 17.552 80.8661 18.528C81.8261 19.488 82.9141 19.968 84.1301 19.968C85.0101 19.968 85.8021 19.824 86.5061 19.536V16.92H84.6101C84.1141 16.92 83.7621 16.856 83.5541 16.728C83.3461 16.6 83.2101 16.416 83.1461 16.176C83.0821 15.92 83.0501 15.584 83.0501 15.168C83.0501 14.736 83.0821 14.392 83.1461 14.136C83.2261 13.88 83.3621 13.704 83.5541 13.608C83.8421 13.464 84.2261 13.392 84.7061 13.392ZM98.7413 8.52C98.7413 8.152 98.7493 7.88 98.7653 7.704C98.7973 7.512 98.8773 7.296 99.0053 7.056C99.2293 6.624 99.8533 6.408 100.877 6.408C101.997 6.408 102.661 6.704 102.869 7.296C102.949 7.568 102.989 7.984 102.989 8.544V21.888C102.989 22.272 102.973 22.552 102.941 22.728C102.925 22.904 102.853 23.112 102.725 23.352C102.501 23.784 101.877 24 100.853 24C99.7333 24 99.0773 23.696 98.8853 23.088C98.7893 22.832 98.7413 22.424 98.7413 21.864V8.52ZM116.257 7.152C116.417 6.864 116.649 6.672 116.953 6.576C117.257 6.48 117.633 6.432 118.081 6.432C118.545 6.432 118.913 6.472 119.185 6.552C119.473 6.632 119.681 6.728 119.809 6.84C119.953 6.952 120.057 7.12 120.121 7.344C120.217 7.6 120.265 8.008 120.265 8.568V21.888C120.265 22.272 120.249 22.552 120.217 22.728C120.201 22.904 120.129 23.112 120.001 23.352C119.777 23.784 119.153 24 118.129 24C117.505 24 117.073 23.952 116.833 23.856C116.593 23.76 116.393 23.608 116.233 23.4C112.633 18.6 110.265 15.464 109.129 13.992V21.888C109.129 22.272 109.113 22.552 109.081 22.728C109.065 22.904 108.993 23.112 108.865 23.352C108.641 23.784 108.017 24 106.993 24C106.001 24 105.393 23.784 105.169 23.352C105.041 23.112 104.961 22.896 104.929 22.704C104.913 22.512 104.905 22.232 104.905 21.864V8.472C104.905 7.864 104.977 7.424 105.121 7.152C105.281 6.864 105.513 6.672 105.817 6.576C106.121 6.48 106.513 6.432 106.993 6.432C107.473 6.432 107.849 6.48 108.121 6.576C108.409 6.656 108.609 6.752 108.721 6.864C108.785 6.912 108.969 7.12 109.273 7.488C112.649 12.08 114.905 15.112 116.041 16.584V8.472C116.041 7.864 116.113 7.424 116.257 7.152ZM140.777 14.568C141.721 15.688 142.193 16.944 142.193 18.336C142.161 19.936 141.609 21.28 140.537 22.368C139.481 23.44 138.193 23.976 136.673 23.976H130.361C129.241 23.976 128.585 23.672 128.393 23.064C128.297 22.792 128.249 22.376 128.249 21.816V8.496C128.249 8.112 128.257 7.832 128.273 7.656C128.305 7.48 128.385 7.272 128.513 7.032C128.737 6.6 129.361 6.384 130.385 6.384H136.433C137.905 6.384 139.137 6.896 140.129 7.92C141.169 8.96 141.689 10.208 141.689 11.664C141.689 12.72 141.385 13.688 140.777 14.568ZM137.945 18.096C137.945 17.712 137.897 17.408 137.801 17.184C137.721 16.96 137.577 16.8 137.369 16.704C137.049 16.576 136.601 16.512 136.025 16.512C135.449 16.512 135.017 16.4 134.729 16.176C134.441 15.952 134.297 15.496 134.297 14.808C134.297 14.104 134.441 13.64 134.729 13.416C135.033 13.192 135.529 13.08 136.217 13.08C136.857 13.08 137.241 12.912 137.369 12.576C137.417 12.4 137.441 12.112 137.441 11.712C137.441 11.312 137.305 11.032 137.033 10.872C136.777 10.712 136.385 10.632 135.857 10.632H132.497V19.728H136.433C137.441 19.728 137.945 19.184 137.945 18.096ZM148.013 20.448H154.541C155.069 20.448 155.453 20.512 155.693 20.64C155.933 20.752 156.093 20.936 156.173 21.192C156.253 21.448 156.293 21.792 156.293 22.224C156.293 22.64 156.253 22.976 156.173 23.232C156.093 23.488 155.957 23.664 155.765 23.76C155.461 23.92 155.045 24 154.517 24H145.877C144.757 24 144.101 23.696 143.909 23.088C143.813 22.832 143.765 22.424 143.765 21.864V8.52C143.765 8.152 143.773 7.88 143.789 7.704C143.821 7.512 143.901 7.296 144.029 7.056C144.253 6.624 144.877 6.408 145.901 6.408C147.021 6.408 147.685 6.704 147.893 7.296C147.973 7.568 148.013 7.984 148.013 8.544V20.448ZM168.003 7.656L174.483 21.048C174.755 21.592 174.891 22 174.891 22.272C174.891 22.848 174.427 23.368 173.499 23.832C172.955 24.104 172.523 24.24 172.203 24.24C171.899 24.24 171.643 24.168 171.435 24.024C171.243 23.88 171.099 23.728 171.003 23.568C170.923 23.408 170.803 23.168 170.643 22.848L169.395 20.256H162.747L161.499 22.848C161.339 23.168 161.211 23.4 161.115 23.544C161.035 23.688 160.891 23.84 160.683 24C160.491 24.144 160.235 24.216 159.915 24.216C159.611 24.216 159.187 24.08 158.643 23.808C157.715 23.36 157.251 22.848 157.251 22.272C157.251 22 157.387 21.592 157.659 21.048L164.139 7.632C164.315 7.264 164.579 6.968 164.931 6.744C165.299 6.52 165.683 6.408 166.083 6.408C166.947 6.408 167.587 6.824 168.003 7.656ZM166.059 13.416L164.475 16.704H167.667L166.059 13.416ZM185.999 19.392L186.431 19.08C186.975 18.76 187.359 18.6 187.583 18.6C188.079 18.6 188.615 19.048 189.191 19.944C189.543 20.504 189.719 20.952 189.719 21.288C189.719 21.624 189.607 21.904 189.383 22.128C189.175 22.352 188.927 22.552 188.639 22.728C188.351 22.904 188.071 23.072 187.799 23.232C187.543 23.392 187.007 23.6 186.191 23.856C185.375 24.112 184.583 24.24 183.815 24.24C183.063 24.24 182.295 24.144 181.511 23.952C180.743 23.744 179.943 23.408 179.111 22.944C178.295 22.464 177.559 21.888 176.903 21.216C176.247 20.528 175.703 19.656 175.271 18.6C174.855 17.528 174.647 16.368 174.647 15.12C174.647 13.872 174.855 12.744 175.271 11.736C175.687 10.712 176.215 9.872 176.855 9.216C177.511 8.544 178.255 7.984 179.087 7.536C180.655 6.672 182.231 6.24 183.815 6.24C184.567 6.24 185.327 6.36 186.095 6.6C186.879 6.824 187.471 7.056 187.871 7.296L188.447 7.632C188.735 7.808 188.959 7.952 189.119 8.064C189.535 8.4 189.743 8.784 189.743 9.216C189.743 9.632 189.575 10.072 189.239 10.536C188.615 11.4 188.055 11.832 187.559 11.832C187.271 11.832 186.863 11.656 186.335 11.304C185.663 10.76 184.767 10.488 183.647 10.488C182.607 10.488 181.583 10.848 180.575 11.568C180.095 11.92 179.695 12.416 179.375 13.056C179.055 13.696 178.895 14.424 178.895 15.24C178.895 16.04 179.055 16.76 179.375 17.4C179.695 18.04 180.103 18.544 180.599 18.912C181.575 19.616 182.591 19.968 183.647 19.968C184.143 19.968 184.607 19.904 185.039 19.776C185.487 19.648 185.807 19.52 185.999 19.392ZM198.832 15.168C201.28 17.52 203.016 19.288 204.04 20.472C204.568 21.064 204.832 21.568 204.832 21.984C204.832 22.384 204.512 22.864 203.872 23.424C203.232 23.968 202.704 24.24 202.288 24.24C201.888 24.24 201.4 23.904 200.824 23.232L195.544 17.208V21.888C195.544 22.272 195.528 22.552 195.496 22.728C195.48 22.904 195.408 23.112 195.28 23.352C195.056 23.784 194.432 24 193.408 24C192.288 24 191.632 23.696 191.44 23.088C191.344 22.832 191.296 22.424 191.296 21.864V8.52C191.296 8.152 191.304 7.88 191.32 7.704C191.352 7.512 191.432 7.296 191.56 7.056C191.784 6.624 192.408 6.408 193.432 6.408C194.552 6.408 195.216 6.704 195.424 7.296C195.504 7.568 195.544 7.984 195.544 8.544V13.128C197.72 10.68 199.48 8.672 200.824 7.104C201.384 6.448 201.872 6.12 202.288 6.12C202.704 6.12 203.232 6.4 203.872 6.96C204.512 7.504 204.832 7.984 204.832 8.4C204.832 8.8 204.592 9.28 204.112 9.84C203.184 10.912 201.744 12.384 199.792 14.256L198.832 15.168Z" fill="white"></path><path d="M15 4C15 4 13.8174 4.00001 12.3516 4.21875C11.7535 4.30799 11.1011 4.44178 10.4473 4.62109C10.0298 4.45639 9.44843 4.26172 8.78125 4.26172C7.76425 4.26172 6.40722 5.33448 4.82422 6.52148C3.86422 7.02948 2 8.2172 2 8.7832C2 9.9132 1.99945 10.4788 2.56445 12.1738C2.87839 13.1148 3.40418 14.3276 3.89062 14.7949C3.92462 14.8367 3.96228 14.8671 4 14.8965V16.0527V19.3691C4 19.9805 4.23571 20.43 4.50977 20.8809C4.78382 21.3318 5.13195 21.77 5.51172 22.1855C6.27126 23.0167 7.09462 23.7383 7.88867 24.1328C7.92819 24.1525 8.05961 24.2681 8.30078 24.5508C8.54195 24.8335 8.88607 25.2418 9.40234 25.627C10.4349 26.3973 12.0894 27 15 27C17.9106 27 19.5651 26.3973 20.5977 25.627C21.1139 25.2418 21.458 24.8335 21.6992 24.5508C21.9404 24.2681 22.0718 24.1524 22.1113 24.1328H22.1133C22.9064 23.738 23.7287 23.0148 24.4883 22.1836C24.868 21.768 25.2162 21.3319 25.4902 20.8809C25.7643 20.4299 26 19.9785 26 19.3672V16.0527V14.8906C26.5147 14.5161 27.0982 13.185 27.4355 12.1738C28.0005 10.4788 28 9.9132 28 8.7832C28 8.2172 26.1358 7.02948 25.1758 6.52148C23.5928 5.33448 22.2358 4.26172 21.2188 4.26172C20.5516 4.26172 19.9702 4.45639 19.5527 4.62109C18.8989 4.44178 18.2465 4.30799 17.6484 4.21875C16.1826 4.00001 15 4 15 4ZM15 6C15 6 16.0397 6.0015 17.3516 6.19727C18.6634 6.39303 20.2129 6.82091 21.0684 7.45898L21.0723 7.46094L21.0742 7.46289C21.7178 7.93748 22.2167 8.54913 22.6094 9.20312C22.4561 9.16687 22.3124 9.11568 22.1523 9.08984C21.7859 9.03068 21.4015 9 21 9C19.4636 9 18.3202 9.70559 17.7246 10.5723C17.129 11.4389 17 12.3589 17 13C16.9981 13.1325 17.0226 13.2641 17.072 13.387C17.1214 13.51 17.1948 13.6219 17.2878 13.7163C17.3809 13.8107 17.4918 13.8856 17.614 13.9368C17.7363 13.9879 17.8675 14.0142 18 14.0142C18.1325 14.0142 18.2637 13.9879 18.386 13.9368C18.5082 13.8856 18.6191 13.8107 18.7122 13.7163C18.8052 13.6219 18.8786 13.51 18.928 13.387C18.9774 13.2641 19.0019 13.1325 19 13C19 12.84 19.0264 12.6155 19.0859 12.3809C19.1454 12.1463 19.238 11.9016 19.373 11.7051C19.6432 11.312 19.9994 11 21 11C22.1627 11 22.9444 11.2972 23.6523 11.8105C23.9433 12.965 24 13.8633 24 13.8633V16.0527V19.3672C24 19.3088 23.9585 19.5501 23.7812 19.8418C23.604 20.1335 23.3263 20.4917 23.0117 20.8359C22.3825 21.5245 21.5386 22.1836 21.2207 22.3418C20.7058 22.5981 20.4224 22.9652 20.1777 23.252C19.9328 23.5391 19.7194 23.7869 19.4023 24.0234C18.7681 24.4966 17.6454 25 15 25C12.3546 25 11.2319 24.4966 10.5977 24.0234C10.2806 23.7869 10.0672 23.5391 9.82227 23.252C9.57734 22.9648 9.29332 22.5982 8.77734 22.3418C8.4604 22.1843 7.61749 21.5245 6.98828 20.8359C6.67367 20.4917 6.39604 20.1335 6.21875 19.8418C6.04146 19.5501 6 19.3102 6 19.3691V16.0527V13.8652C6 13.8652 6.05647 12.9658 6.34766 11.8105C7.05558 11.2972 7.83734 11 9 11C10.0006 11 10.3568 11.312 10.627 11.7051C10.8971 12.0982 11 12.6801 11 13C10.9981 13.1325 11.0226 13.2641 11.072 13.387C11.1214 13.51 11.1948 13.6219 11.2878 13.7163C11.3809 13.8107 11.4918 13.8856 11.614 13.9368C11.7363 13.9879 11.8675 14.0142 12 14.0142C12.1325 14.0142 12.2637 13.9879 12.386 13.9368C12.5082 13.8856 12.6191 13.8107 12.7122 13.7163C12.8052 13.6219 12.8786 13.51 12.928 13.387C12.9774 13.2641 13.0019 13.1325 13 13C13 12.3589 12.871 11.4389 12.2754 10.5723C11.6798 9.70559 10.5364 9 9 9C8.42316 9 7.89501 9.08387 7.39062 9.20312C7.78335 8.54897 8.28224 7.93746 8.92578 7.46289L8.92773 7.46094L8.93164 7.45898C9.78715 6.82091 11.3366 6.39303 12.6484 6.19727C13.9603 6.0015 15 6 15 6ZM13.5176 8.01367C13.2998 7.98616 13.0777 8.08636 12.9082 8.25586C12.6822 8.48186 12.6901 8.95169 12.9141 9.17969C14.1401 10.4287 14.1728 10.8396 14.2988 11.3516C14.4248 11.8636 14.661 12 15 12C15.339 12 15.5752 11.8636 15.7012 11.3516C15.8272 10.8396 15.8599 10.4287 17.0859 9.17969C17.3099 8.95169 17.3178 8.48186 17.0918 8.25586C16.8658 8.02986 16.5446 7.92694 16.2676 8.08594C15.6796 8.42494 15 9 15 9C15 9 14.3204 8.42494 13.7324 8.08594C13.6632 8.04619 13.5902 8.02284 13.5176 8.01367ZM8.5 13C7.809 13.073 7.33991 13.5379 7.12891 13.7949C7.16991 13.7879 7.207 13.7715 7.25 13.7715C7.664 13.7715 8 14.097 8 14.5C8 14.898 7.66972 15.2196 7.26172 15.2266C7.46072 15.5906 7.80545 15.91 8.43945 16C9.33945 15.847 10 15.2376 10 14.4746C10 13.7116 9.34 13.102 8.5 13ZM21.5 13C20.66 13.102 20 13.7116 20 14.4746C20 15.2376 20.6605 15.848 21.5605 16C22.1945 15.91 22.5393 15.5906 22.7383 15.2266C22.3303 15.2196 22 14.898 22 14.5C22 14.097 22.336 13.7715 22.75 13.7715C22.793 13.7715 22.8301 13.7879 22.8711 13.7949C22.6601 13.5379 22.191 13.073 21.5 13ZM15 14C14.177 14 13.4527 14.4112 13.0117 15.0352C11.9877 15.2102 8 16.1598 8 20.3848C8 21.4618 9.16603 22 10.332 22C12.479 22 13.833 21 15 21C16.167 21 17.496 22 19.668 22C20.834 22 22 21.4618 22 20.3848C22 16.1598 18.0123 15.2102 16.9883 15.0352C16.5473 14.4112 15.823 14 15 14Z" fill="white"></path></svg>