<svg xmlns="http://www.w3.org/2000/svg" width="50" height="50" viewBox="0 0 50 50" fill="none"><path d="M3.33334 6.6665V16.6665H5.00001V38.3332C5.00001 40.1549 6.51157 41.6665 8.33334 41.6665H20V38.3332H30V41.6665H41.6667C43.4884 41.6665 45 40.1549 45 38.3332V16.6665H46.6667V6.6665H36.6667V8.33317H13.3333V6.6665H3.33334ZM30 41.6665H20V44.9998H30V41.6665ZM8.33334 11.6665H41.6667V38.3332H35V34.9998H31.6667V31.6665H28.3333V28.3332H21.6667V31.6665H18.3333V34.9998H15V38.3332H8.33334V11.6665ZM10 21.6665V28.3332H16.6667V24.9998H13.3333V21.6665H10ZM36.6667 21.6665V24.9998H33.3333V28.3332H40V21.6665H36.6667Z" fill="#F2C94C"></path></svg>