<svg xmlns="http://www.w3.org/2000/svg" viewBox="0 0 23 18" fill="currentColor"><path d="M19.496 2.33596C17.5568 0.777561 14.4904 0.513561 14.3608 0.502361C14.156 0.484761 13.9616 0.600761 13.8776 0.787961C13.8744 0.794361 13.7032 1.29116 13.5376 1.77036C15.7912 2.16476 17.3224 3.03996 17.404 3.08796C17.7864 3.31036 17.9144 3.80076 17.6912 4.18236C17.5432 4.43676 17.2752 4.57916 17 4.57916C16.8632 4.57916 16.7256 4.54476 16.5992 4.47116C16.5768 4.45756 14.3304 3.17916 11.4016 3.17916C8.47201 3.17916 6.22481 4.45836 6.20241 4.47116C5.82081 4.69276 5.33121 4.56236 5.10961 4.17996C4.88801 3.79916 5.01681 3.31036 5.39761 3.08796C5.47921 3.03996 7.01601 2.16156 9.27601 1.76796C9.10161 1.28316 8.92561 0.794361 8.92241 0.787961C8.83841 0.599961 8.64401 0.481561 8.43921 0.502361C8.30961 0.512761 5.24321 0.776761 3.27841 2.35676C2.25121 3.30556 0.200012 8.85276 0.200012 13.6488C0.200012 13.7336 0.221612 13.816 0.264012 13.8896C1.68081 16.3776 5.54321 17.0288 6.42321 17.0568C6.42881 17.0576 6.43361 17.0576 6.43841 17.0576C6.59361 17.0576 6.74001 16.9832 6.83201 16.8576L7.78401 15.568C5.69601 15.0648 4.59201 14.2736 4.52561 14.2248C4.17041 13.9632 4.09361 13.4624 4.35521 13.1064C4.61601 12.752 5.11521 12.6736 5.47041 12.9336C5.50001 12.9528 7.53761 14.3792 11.4 14.3792C15.2776 14.3792 17.3096 12.9472 17.3296 12.9328C17.6848 12.6752 18.1856 12.7528 18.4456 13.1096C18.7048 13.4648 18.6296 13.9624 18.276 14.2232C18.2096 14.272 17.1112 15.0616 15.028 15.5648L15.968 16.8568C16.06 16.9832 16.2064 17.0568 16.3616 17.0568C16.3672 17.0568 16.372 17.0568 16.3768 17.056C17.2576 17.028 21.12 16.3768 22.536 13.8888C22.5784 13.8152 22.6 13.7328 22.6 13.648C22.6 8.85276 20.5488 3.30556 19.496 2.33596ZM8.20001 11.9792C7.31601 11.9792 6.60001 11.084 6.60001 9.97916C6.60001 8.87436 7.31601 7.97916 8.20001 7.97916C9.08401 7.97916 9.80001 8.87436 9.80001 9.97916C9.80001 11.084 9.08401 11.9792 8.20001 11.9792ZM14.6 11.9792C13.716 11.9792 13 11.084 13 9.97916C13 8.87436 13.716 7.97916 14.6 7.97916C15.484 7.97916 16.2 8.87436 16.2 9.97916C16.2 11.084 15.484 11.9792 14.6 11.9792Z" fill="currentColor"/></svg>