<svg xmlns="http://www.w3.org/2000/svg" viewBox="0 0 54 60" fill="currentColor"><path d="M27 0.631714C25.9465 0.631714 24.893 0.90238 23.9531 1.44379L3.79688 13.0829C1.91719 14.1704 0.75 16.1906 0.75 18.3609V41.6345C0.75 43.8048 1.91719 45.825 3.79688 46.9125L23.9531 58.5516C24.8906 59.0954 25.9453 59.3674 27 59.3674C28.0547 59.3674 29.1094 59.0954 30.0469 58.5516L50.2031 46.9125C52.0828 45.8297 53.25 43.8094 53.25 41.6391V18.3609C53.25 16.1906 52.0828 14.1704 50.2031 13.0829L30.0469 1.44379C29.107 0.90238 28.0535 0.631714 27 0.631714ZM27 3.44147C27.5672 3.44147 28.1344 3.58795 28.6406 3.88092L48.7969 15.52C49.8094 16.106 50.4375 17.1937 50.4375 18.3609V41.6345C50.4375 42.8064 49.8094 43.894 48.7969 44.48L28.6406 56.1191C27.6281 56.705 26.3719 56.705 25.3594 56.1191L5.20312 44.48C4.19062 43.894 3.5625 42.8063 3.5625 41.6391V18.3609C3.5625 17.1937 4.19062 16.1013 5.20312 15.52L25.3594 3.88092C25.8656 3.58795 26.4328 3.44147 27 3.44147ZM27 7.48352C26.7574 7.48352 26.5148 7.54647 26.2969 7.67303C25.8609 7.92616 25.5938 8.39095 25.5938 8.89252V51.1121C25.5938 51.8902 26.2219 52.5183 27 52.5183C27.7781 52.5183 28.4062 51.8902 28.4062 51.1121V31.4062H34.0312C34.8094 31.4062 35.4375 30.7781 35.4375 30C35.4375 29.2219 34.8094 28.5938 34.0312 28.5938H28.4062V11.3251L40.1433 18.1027C40.1339 18.1637 40.125 18.2203 40.125 18.2812V41.7188C40.125 42.4969 40.7531 43.125 41.5312 43.125C42.3094 43.125 42.9375 42.4969 42.9375 41.7188V19.7159L45.5156 21.2064C46.1906 21.5954 47.0483 21.3659 47.4373 20.6909C47.8264 20.0159 47.5922 19.1574 46.9219 18.7683L27.7031 7.67303C27.4852 7.54647 27.2426 7.48352 27 7.48352ZM19.0312 14.5312C18.2531 14.5312 17.625 15.1594 17.625 15.9375V37.3737L10.0078 20.0574C9.74063 19.448 9.08467 19.1112 8.43311 19.2471C7.77686 19.3878 7.3125 19.9594 7.3125 20.625V39.375C7.3125 40.1531 7.94063 40.7812 8.71875 40.7812C9.49687 40.7812 10.125 40.1531 10.125 39.375V27.3138L17.7422 44.6301C17.9719 45.1458 18.4828 45.4688 19.0312 45.4688C19.125 45.4688 19.223 45.4591 19.3215 45.4404C19.973 45.2997 20.4375 44.7281 20.4375 44.0625V15.9375C20.4375 15.1594 19.8094 14.5312 19.0312 14.5312Z" fill="currentColor"/></svg>