<svg xmlns="http://www.w3.org/2000/svg" viewBox="0 0 52 56" fill="currentColor"><path d="M26 0.400024C16.9297 0.400024 10.5031 3.27815 6.46249 7.97502C2.42186 12.6719 0.799988 19.0328 0.799988 25.825C0.799988 31.6844 3.76718 35.8844 6.91249 38.7625C8.4828 40.2016 10.1047 41.35 11.45 42.25C12.7531 43.1219 13.7844 43.7828 14.15 44.125C15.2891 45.7 16.3953 55.6 26 55.6C35.6141 55.6 36.7812 45.6672 37.85 44.275C37.8547 44.2703 37.8453 44.2422 37.85 44.2375C38.2062 43.8813 39.2516 43.2063 40.55 42.325C41.8906 41.4203 43.5172 40.2766 45.0875 38.8375C48.2328 35.9594 51.2 31.7406 51.2 25.825C51.2 19.0328 49.5781 12.6719 45.5375 7.97502C41.4969 3.27815 35.0703 0.400024 26 0.400024ZM26 2.80002C34.5687 2.80002 40.1516 5.42502 43.7 9.55002C47.2484 13.675 48.8 19.4172 48.8 25.825C48.8 30.9485 46.3297 34.4594 43.475 37.075C42.0453 38.3828 40.5125 39.4469 39.2 40.3375C37.8875 41.2281 36.8094 41.8656 36.05 42.6625C36.0219 42.686 35.9984 42.7094 35.975 42.7375C33.2047 46.2016 34.1141 53.2 26 53.2C17.8859 53.2 18.7203 46.1641 16.025 42.625C15.9922 42.5828 15.9547 42.5453 15.9125 42.5125C15.1625 41.7625 14.1125 41.1438 12.8 40.2625C11.4875 39.3813 9.95468 38.3078 8.52499 37C5.6703 34.3844 3.19999 30.8828 3.19999 25.825C3.19999 19.4172 4.75155 13.675 8.29999 9.55002C11.8484 5.42502 17.4312 2.80002 26 2.80002ZM12.6125 18.325C12.0969 18.3203 11.6281 18.3438 11.1875 18.4C10.3109 18.5078 9.64061 18.5219 8.93749 19.225C8.23436 19.9281 8.2203 20.561 8.11249 21.4375C8.00468 22.3141 8.00468 23.3875 8.14999 24.55C8.4453 26.8703 9.37811 29.6031 11.4875 31.7125C13.5969 33.8219 16.3297 34.7547 18.65 35.05C19.8125 35.1953 20.8859 35.1953 21.7625 35.0875C22.6391 34.9797 23.2719 34.9656 23.975 34.2625C24.6687 33.5688 24.6922 32.9172 24.8 32.05C24.9078 31.1828 24.9078 30.1281 24.7625 28.975C24.4672 26.6688 23.5578 23.936 21.4625 21.775C21.4625 21.761 21.4625 21.7516 21.4625 21.7375C19.3531 19.6281 16.5828 18.7328 14.2625 18.4375C13.6812 18.3625 13.1281 18.3297 12.6125 18.325ZM39.5 18.325C38.975 18.3297 38.4312 18.3625 37.85 18.4375C35.5297 18.7328 32.7969 19.6281 30.6875 21.7375C28.5781 23.8469 27.6453 26.6172 27.35 28.9375C27.2047 30.1 27.2047 31.136 27.3125 32.0125C27.4203 32.8891 27.4344 33.5594 28.1375 34.2625C28.8406 34.9656 29.5109 34.9797 30.3875 35.0875C31.2641 35.1953 32.3 35.1953 33.4625 35.05C35.7828 34.7547 38.5531 33.8219 40.6625 31.7125C42.7719 29.6031 43.6672 26.8703 43.9625 24.55C44.1078 23.3875 44.1078 22.3141 44 21.4375C43.8922 20.561 43.8781 19.9281 43.175 19.225C42.4719 18.5219 41.8391 18.5078 40.9625 18.4C40.5219 18.3438 40.025 18.3203 39.5 18.325ZM12.575 20.725C13.0016 20.7297 13.4797 20.7766 13.9625 20.8375C15.8984 21.0813 18.1297 21.8547 19.7375 23.4625C21.3453 25.136 22.1187 27.3625 22.3625 29.275C22.4844 30.236 22.4797 31.1172 22.4 31.75C22.3625 32.05 22.2687 32.3078 22.2125 32.4625C22.0531 32.5235 21.7859 32.65 21.4625 32.6875C20.8156 32.7672 19.9203 32.7719 18.95 32.65C17.0141 32.4063 14.7828 31.6328 13.175 30.025C11.5672 28.4172 10.7937 26.186 10.55 24.25C10.4281 23.2797 10.4328 22.3844 10.5125 21.7375C10.55 21.4141 10.6766 21.1469 10.7375 20.9875C10.8922 20.9313 11.1453 20.8375 11.45 20.8C11.7734 20.7625 12.1484 20.7203 12.575 20.725ZM39.5375 20.725C39.9641 20.7203 40.3391 20.7625 40.6625 20.8C40.9859 20.8375 41.2531 20.936 41.4125 20.9875C41.4641 21.1469 41.5625 21.4141 41.6 21.7375C41.6797 22.3844 41.6844 23.2797 41.5625 24.25C41.3187 26.186 40.5453 28.4172 38.9375 30.025C37.3297 31.6328 35.0984 32.4063 33.1625 32.65C32.1922 32.7719 31.2969 32.7672 30.65 32.6875C30.35 32.65 30.0922 32.5656 29.9375 32.5C29.8766 32.35 29.75 32.0735 29.7125 31.75C29.6328 31.1031 29.6281 30.2078 29.75 29.2375C29.9937 27.3016 30.7672 25.0703 32.375 23.4625C33.9828 21.8547 36.2141 21.0813 38.15 20.8375C38.6328 20.7766 39.1109 20.7297 39.5375 20.725ZM24.8 37.6C24.8 37.6 22.175 41.5516 22.175 42.5125C22.175 43.5906 22.7656 43.6 23.4875 43.6C24.0875 43.6 24.8 43.5906 24.8 42.5125V37.6ZM27.2 37.6V42.5125C27.2 43.5906 27.9125 43.6 28.5125 43.6C29.2344 43.6 29.825 43.5906 29.825 42.5125C29.825 41.5516 27.2 37.6 27.2 37.6Z" fill="currentColor"/></svg>