<svg xmlns="http://www.w3.org/2000/svg" viewBox="0 0 56 56" fill="currentColor"><path d="M23.2 0.400024C10.6234 0.400024 0.399994 10.6235 0.399994 23.2C0.399994 35.7766 10.6234 46 23.2 46C29.0594 46 34.3844 43.75 38.425 40.1125L53.5375 55.2625C54.0156 55.7406 54.7844 55.7406 55.2625 55.2625C55.7406 54.7844 55.7406 54.0156 55.2625 53.5375L40.1125 38.425C43.75 34.3844 46 29.0594 46 23.2C46 10.6235 35.7766 0.400024 23.2 0.400024ZM23.2 2.80002C28.4031 2.80002 33.1375 4.74065 36.7375 7.93752L7.93749 36.7375C4.74062 33.1375 2.79999 28.4031 2.79999 23.2C2.79999 11.9172 11.9172 2.80002 23.2 2.80002ZM21.775 7.60002V10.75C19.4359 11.0313 15.3625 12.9531 15.3625 17.8375C15.3625 20.8938 16.8625 22.4172 18.85 23.3125L21.1375 21.025C19.5531 20.3735 18.4375 19.3844 18.4375 17.5375C18.4375 16.2438 18.9672 13.4125 23.2 13.4125C24.9859 13.4125 26.2281 14.1016 27.025 15.1375L28.975 13.1875C28.0187 12.0203 26.6547 11.1672 24.625 10.825V7.60002H21.775ZM38.4625 9.66252C41.6594 13.2625 43.6 17.9969 43.6 23.2C43.6 28.7453 41.4062 33.775 37.825 37.45C37.8203 37.4547 37.7922 37.4453 37.7875 37.45C37.7594 37.4735 37.7359 37.4969 37.7125 37.525C37.6422 37.5813 37.5812 37.6422 37.525 37.7125C37.4969 37.75 37.4734 37.7875 37.45 37.825C33.775 41.4063 28.7453 43.6 23.2 43.6C17.9969 43.6 13.2625 41.6594 9.66249 38.4625L38.4625 9.66252ZM27.6625 22.975L25.4125 25.225C27.2547 25.8813 28.6375 26.8891 28.6375 29.0875C28.6375 31.4031 27.5875 33.4375 23.2 33.4375C21.1375 33.4375 19.7969 32.6875 18.925 31.7125L16.9 33.7375C18.4234 35.3078 20.3875 35.8563 21.775 36.0625V38.8H24.625V36.1C26.7297 35.8985 31.675 34.3703 31.675 28.7875C31.6703 25.6094 29.9359 23.9594 27.6625 22.975Z" fill="currentColor"/></svg>